<svg xmlns="http://www.w3.org/2000/svg" width="47.99" height="36" viewBox="0 0 47.99 36"><title>sunrise</title><g id="a3007f0c-4578-4d33-99c1-0979f3f4b7bc" data-name="Layer 2"><g id="e2bb920a-1ece-4235-83a8-ed3353dd2dfd" data-name="Layer 1"><path d="M12.69,9.86,9.86,7A2,2,0,0,0,7,9.86l2.83,2.82a2,2,0,0,0,2.83-2.82ZM46,22H42a2,2,0,0,0,0,4h4a2,2,0,1,0,0-4ZM6,22H2a2,2,0,0,0,0,4H6a2,2,0,0,0,0-4ZM34,32H14a2,2,0,0,0,0,4H34a2,2,0,0,0,0-4ZM41,7a2,2,0,0,0-2.83,0L35.31,9.86a2,2,0,0,0,2.83,2.82L41,9.86A2,2,0,0,0,41,7ZM24,8a2,2,0,0,0,2-2V2a2,2,0,0,0-4,0V6A2,2,0,0,0,24,8Zm0,4A12,12,0,0,0,12,24a11.85,11.85,0,0,0,.7,4h4.38A7.88,7.88,0,0,1,16,24a8,8,0,1,1,14.92,4H35.3A12,12,0,0,0,24,12Zm0,16.25a1,1,0,0,0,1-1V23.42L27.53,26A1,1,0,1,0,29,24.54L24.71,20.3a1,1,0,0,0-1.42,0l-4.24,4.24a1,1,0,0,0,0,1.41,1,1,0,0,0,1.41,0L23,23.42v3.83A1,1,0,0,0,24,28.25Z" style="fill:#ff0"/></g></g></svg>