<svg xmlns="http://www.w3.org/2000/svg" width="297.4" height="512" viewBox="0 0 297.4 512"><title>sad-face-custom</title><g id="d4a80afc-e365-42eb-b56b-796f2501c0b3" data-name="Layer 2"><g id="1073c0df-ee86-4f83-91df-0b083765686c" data-name="Capa 1"><path d="M262.83,0H34.57A34.67,34.67,0,0,0,0,34.58V477.4A34.68,34.68,0,0,0,34.57,512H262.83a34.63,34.63,0,0,0,34.57-34.58V34.58A34.65,34.65,0,0,0,262.83,0ZM112.19,24.93h73a4.19,4.19,0,1,1,0,8.38h-73a4.19,4.19,0,1,1,0-8.38ZM148.7,494.71A17.3,17.3,0,1,1,166,477.4,17.33,17.33,0,0,1,148.7,494.71ZM273.36,448H24.08V54.84h249.3V448ZM148.7,280.8a123,123,0,0,1,87.61,36.29A8.68,8.68,0,1,1,224,329.36a106.49,106.49,0,0,0-150.66,0,8.68,8.68,0,1,1-12.29-12.27A123.14,123.14,0,0,1,148.7,280.8Zm-19.54-90.45a21,21,0,1,1-21-21A21.05,21.05,0,0,1,129.16,190.35Zm81.17,0a21,21,0,1,1-21-21A21.06,21.06,0,0,1,210.33,190.35Z" style="fill:#e84849"/></g></g></svg>