<svg xmlns="http://www.w3.org/2000/svg" width="473.93" height="473.93" viewBox="0 0 473.93 473.93"><title>warning</title><g id="f7285eca-76c3-4145-896c-83c91bcabf31" data-name="Layer 2"><g id="d989634f-3d09-464e-804d-ecaa40c30429" data-name="Layer 1"><circle cx="236.97" cy="236.97" r="236.97" style="fill:#e84849"/><path d="M409.27,333.9l-162.59-262a10.39,10.39,0,0,0-17.65,0L66,334.62a10.39,10.39,0,0,0,8.82,15.86H400.94a10.39,10.39,0,0,0,8.33-16.58Z" style="fill:#edc92c"/><path d="M225.82,242.11l-3.37-50.44q-.94-14.74-.94-21.16,0-8.74,4.57-13.64a15.73,15.73,0,0,1,12.06-4.9q9.06,0,12.11,6.26t3.06,18.06a137.85,137.85,0,0,1-.74,14.11L248,242.32q-.73,9.27-3.16,14.22a8.29,8.29,0,0,1-8,4.94q-5.7,0-7.9-4.79T225.82,242.11Zm11.69,69.29a16.57,16.57,0,0,1-11.22-4.15q-4.78-4.15-4.79-11.64a15.64,15.64,0,0,1,15.8-15.69,15.59,15.59,0,0,1,11.32,4.58,15,15,0,0,1,4.69,11.11q0,7.38-4.75,11.59A16.14,16.14,0,0,1,237.51,311.4Z"/></g></g></svg>