<svg xmlns="http://www.w3.org/2000/svg" width="47.99" height="36" viewBox="0 0 47.99 36"><title>sunset</title><g id="d839eb7c-d521-4a6e-8d14-f398ec07318a" data-name="Layer 2"><g id="402a7a0a-6c79-435a-b4c7-716afd409c74" data-name="Layer 1"><path d="M46,26H42a2,2,0,0,1,0-4h4a2,2,0,0,1,0,4ZM38.14,12.69a2,2,0,0,1-2.83-2.83L38.14,7A2,2,0,0,1,41,9.86ZM35.3,28H30.92A8,8,0,1,0,16,24a7.88,7.88,0,0,0,1.08,4H12.7a11.85,11.85,0,0,1-.7-4,12,12,0,1,1,23.3,4ZM24,8a2,2,0,0,1-2-2V2a2,2,0,0,1,4,0V6A2,2,0,0,1,24,8ZM9.86,12.69,7,9.86A2,2,0,0,1,9.86,7l2.83,2.83a2,2,0,0,1-2.83,2.83ZM8,24a2,2,0,0,1-2,2H2a2,2,0,0,1,0-4H6A2,2,0,0,1,8,24Zm16-4a1,1,0,0,1,1,1v3.83l2.53-2.54a1,1,0,0,1,1.42,0,1,1,0,0,1,0,1.41L24.71,28a1,1,0,0,1-1.42,0L19.05,23.7a1,1,0,0,1,1.41-1.41L23,24.83V21A1,1,0,0,1,24,20ZM14,32H34a2,2,0,0,1,0,4H14a2,2,0,0,1,0-4Z" style="fill:#FFFF00"/></g></g></svg>